<?xml version="1.0" standalone="no"?>
<!DOCTYPE svg PUBLIC "-//W3C//DTD SVG 20010904//EN"
 "http://www.w3.org/TR/2001/REC-SVG-20010904/DTD/svg10.dtd">
<svg version="1.0" xmlns="http://www.w3.org/2000/svg"
 width="260.000000pt" height="260.000000pt" viewBox="0 0 260.000000 260.000000"
 preserveAspectRatio="xMidYMid meet">
<metadata>
Created by potrace 1.14, written by Peter Selinger 2001-2017
</metadata>
<g transform="translate(0.000000,260.000000) scale(0.100000,-0.100000)"
fill="#000000" stroke="none">
<path d="M1225 2509 c-22 -4 -54 -10 -72 -13 -88 -16 -195 -74 -266 -144 -31
-30 -90 -128 -90 -149 0 -7 -4 -13 -9 -13 -4 0 -8 -11 -8 -24 0 -26 -18 -49
-52 -67 -103 -55 -234 -226 -254 -331 -3 -18 -7 -40 -9 -48 -2 -8 -4 -47 -4
-87 l-1 -71 -42 -25 c-48 -28 -108 -91 -108 -113 0 -8 -4 -14 -9 -14 -8 0 -21
-34 -20 -54 1 -5 -3 -12 -9 -15 -5 -3 -17 -39 -27 -79 -18 -74 -25 -276 -12
-352 3 -19 8 -50 11 -68 3 -19 15 -61 27 -95 47 -137 125 -235 203 -257 42
-11 45 -16 49 -77 0 -7 7 -13 14 -13 8 0 11 -4 8 -10 -3 -5 -15 -10 -25 -10
-10 0 -20 -4 -22 -9 -1 -5 -12 -11 -23 -13 -11 -1 -22 -6 -25 -9 -3 -3 -39
-23 -80 -43 -41 -21 -81 -43 -87 -49 -7 -7 -15 -35 -18 -62 -3 -28 -8 -59 -10
-70 -2 -11 -4 -35 -4 -53 -1 -25 -7 -35 -26 -44 -14 -6 -25 -15 -25 -20 0 -4
458 -8 1018 -8 559 0 1012 4 1006 8 -10 6 -21 38 -30 81 -1 7 -7 18 -13 24 -6
6 -11 19 -11 29 0 10 -5 18 -11 18 -5 0 -7 5 -4 10 3 6 1 10 -4 10 -6 0 -11 6
-11 14 0 8 -6 21 -12 28 -7 7 -29 38 -49 69 l-37 56 57 26 c31 14 99 39 152
57 l97 31 1 560 c1 387 -1 559 -9 554 -5 -3 -10 2 -11 12 -4 88 -7 148 -9 148
-1 0 -3 10 -6 23 -14 78 -87 197 -164 268 -31 29 -39 43 -36 65 3 23 -9 39
-73 101 -63 61 -139 128 -186 166 -13 11 -108 67 -115 68 -3 0 -27 10 -53 22
-27 12 -58 24 -70 27 -12 2 -51 11 -87 20 -72 18 -242 26 -305 14z m-117
-2181 c-5 -13 -26 -18 -41 -10 -13 6 4 22 24 22 12 0 19 -5 17 -12z m-165 -15
c-7 -2 -21 -2 -30 0 -10 3 -4 5 12 5 17 0 24 -2 18 -5z"/>
</g>
</svg>
